<?xml version="1.0" standalone="no"?><!DOCTYPE svg PUBLIC "-//W3C//DTD SVG 1.1//EN" "http://www.w3.org/Graphics/SVG/1.1/DTD/svg11.dtd"><svg t="1641545425316" class="icon" viewBox="0 0 1396 1024" version="1.1" xmlns="http://www.w3.org/2000/svg" p-id="6042" xmlns:xlink="http://www.w3.org/1999/xlink" width="272.65625" height="200"><defs><style type="text/css"></style></defs><path d="M0 71.959273h1303.272727a93.090909 93.090909 0 0 1 93.090909 93.090909v584.471273a186.181818 186.181818 0 0 1-186.181818 186.181818H186.181818a186.181818 186.181818 0 0 1-186.181818-186.181818V71.959273z" fill="#005DE8" opacity=".2" p-id="6043"></path><path d="M547.048727 28.811636m46.545455 0l166.027636 0q46.545455 0 46.545455 46.545455l0 36.491636q0 46.545455-46.545455 46.545455l-166.027636 0q-46.545455 0-46.545455-46.545455l0-36.491636q0-46.545455 46.545455-46.545455Z" fill="#FFDB00" p-id="6044"></path><path d="M297.425455 28.811636m46.545454 0l214.109091 0q46.545455 0 46.545455 46.545455l0 36.491636q0 46.545455-46.545455 46.545455l-214.109091 0q-46.545455 0-46.545454-46.545455l0-36.491636q0-46.545455 46.545454-46.545455Z" fill="#3289FF" p-id="6045"></path><path d="M216.901818 0c77.684364 0 144.244364 47.569455 172.171637 115.2H1303.272727a93.090909 93.090909 0 0 1 93.090909 93.090909V885.76a93.090909 93.090909 0 0 1-93.090909 93.090909H93.090909a93.090909 93.090909 0 0 1-93.090909-93.090909V93.090909a93.090909 93.090909 0 0 1 93.090909-93.090909h123.810909z" fill="#005DE8" p-id="6046"></path><path d="M259.816727 702.370909c26.810182 0 53.201455-5.026909 71.214546-11.729454v-70.795637a198.097455 198.097455 0 0 1-67.025455 10.472727c-41.053091 0-59.485091-15.080727-59.485091-77.498181 0-59.485091 16.337455-79.173818 58.228364-79.173819 23.877818 0 45.242182 3.770182 64.930909 10.891637V413.742545c-18.013091-6.702545-43.147636-10.472727-71.633455-10.472727-87.133091 0-142.848 37.282909-142.848 149.550546 0 121.902545 57.809455 149.550545 146.618182 149.550545z m210.292364-234.170182c-16.337455 0-40.634182 0.837818-57.809455 3.770182v66.606546a275.083636 275.083636 0 0 1 46.498909-3.770182l11.962182 0.232727c23.272727 1.024 29.696 6.190545 30.766546 26.158545h-46.498909c-65.768727 0-95.511273 19.269818-95.511273 71.214546 0 48.593455 29.742545 69.957818 77.079273 69.957818 39.796364 0 59.066182-13.824 65.768727-25.134545l6.283636 20.945454h72.052364v-153.739636c0-52.782545-31.418182-76.241455-110.592-76.241455z m-8.378182 175.104c-16.337455 0-25.134545-2.932364-25.134545-14.661818 0-12.288 6.702545-16.477091 27.182545-17.082182l37.748364-0.093091v17.594182c-6.283636 7.959273-20.107636 14.242909-39.796364 14.242909z m277.736727 59.066182c20.945455 0 47.755636-3.351273 60.741819-8.797091v-63.255273a119.296 119.296 0 0 1-45.242182 7.540364c-34.769455 0-52.363636-10.472727-52.363637-52.782545 0-41.890909 18.432-53.620364 50.688-53.620364 15.499636 0 28.904727 1.675636 43.985455 7.121455v-64.512c-15.080727-4.608-37.701818-6.283636-57.809455-6.283637-73.728 0-117.294545 24.296727-117.294545 117.294546s43.566545 117.294545 117.294545 117.294545z m252.183273-234.589091c-38.120727 0-59.485091 12.148364-69.957818 28.485818V379.810909h-79.592727V698.181818h79.592727v-146.618182c2.932364-12.148364 11.729455-20.945455 32.256-20.945454 25.134545 0 32.256 4.608 32.256 32.674909V698.181818h79.592727v-152.901818c0-54.877091-20.945455-77.498182-74.146909-77.498182z m333.032727 102.632727c0-69.12-21.783273-102.632727-102.213818-102.632727-74.984727 0-118.551273 24.296727-118.551273 117.294546s43.566545 117.294545 114.781091 117.294545c44.823273 0 80.849455-8.378182 94.673455-18.013091v-58.647273c-13.405091 7.959273-48.174545 16.337455-78.754909 16.337455-28.904727 0-46.917818-7.959273-51.525818-27.648l139.077818-8.378182c1.256727-3.351273 2.513455-17.175273 2.513454-35.607273z m-142.010181-10.053818c1.675636-28.066909 13.405091-34.350545 40.215272-34.350545 25.134545 0 31.418182 11.729455 31.418182 28.904727l-71.633454 5.445818z" fill="#FFFFFF" p-id="6047"></path></svg>