<?xml version="1.0" standalone="no"?><!DOCTYPE svg PUBLIC "-//W3C//DTD SVG 1.1//EN" "http://www.w3.org/Graphics/SVG/1.1/DTD/svg11.dtd"><svg t="1641545758821" class="icon" viewBox="0 0 1024 1024" version="1.1" xmlns="http://www.w3.org/2000/svg" p-id="12648" xmlns:xlink="http://www.w3.org/1999/xlink" width="200" height="200"><defs><style type="text/css"></style></defs><path d="M953.5 455.3L528.3 103.7c-8.9-7.4-23.6-7.4-32.5 0L70.7 455.3c-8.9 7.4-8.9 19.5 0 26.9h76.2v424.3c0 12 9.8 21.8 21.8 21.8h684.6c12 0 21.8-9.8 21.8-21.8V482.1h78.4c8.9-7.4 8.9-19.4 0-26.8z m-658 420c0 5.7-4.6 10.3-10.3 10.3h-86.5c-5.7 0-10.3-4.6-10.3-10.3v-86.5c0-5.7 4.6-10.3 10.3-10.3h86.5c5.7 0 10.3 4.6 10.3 10.3v86.5z m0-139.1c0 5.7-4.6 10.3-10.3 10.3h-86.5c-5.7 0-10.3-4.6-10.3-10.3v-86.5c0-5.7 4.6-10.3 10.3-10.3h86.5c5.7 0 10.3 4.6 10.3 10.3v86.5z m0-139.2c0 5.7-4.6 10.3-10.3 10.3h-86.5c-5.7 0-10.3-4.6-10.3-10.3v-86.5c0-5.7 4.6-10.3 10.3-10.3h86.5c5.7 0 10.3 4.6 10.3 10.3V597z m141.8 278.3c0 5.7-4.6 10.3-10.3 10.3h-86.5c-5.7 0-10.3-4.6-10.3-10.3v-86.5c0-5.7 4.6-10.3 10.3-10.3H427c5.7 0 10.3 4.6 10.3 10.3v86.5z m0-139.1c0 5.7-4.6 10.3-10.3 10.3h-86.5c-5.7 0-10.3-4.6-10.3-10.3v-86.5c0-5.7 4.6-10.3 10.3-10.3H427c5.7 0 10.3 4.6 10.3 10.3v86.5z m141.8 139.1c0 5.7-4.6 10.3-10.3 10.3h-86.5c-5.7 0-10.3-4.6-10.3-10.3v-86.5c0-5.7 4.6-10.3 10.3-10.3h86.5c5.7 0 10.3 4.6 10.3 10.3v86.5z" fill="#24CE70" p-id="12649"></path></svg>