<?xml version="1.0" standalone="no"?><!DOCTYPE svg PUBLIC "-//W3C//DTD SVG 1.1//EN" "http://www.w3.org/Graphics/SVG/1.1/DTD/svg11.dtd"><svg t="1624463906205" class="icon" viewBox="0 0 1024 1024" version="1.1" xmlns="http://www.w3.org/2000/svg" p-id="2546" xmlns:xlink="http://www.w3.org/1999/xlink" width="200" height="200"><defs><style type="text/css"></style></defs><path d="M512 0c282.624 0 512 229.376 512 512s-229.376 512-512 512S0 794.624 0 512 229.376 0 512 0z m0 73.216c-242.176 0-438.784 196.608-438.784 438.784s196.608 438.784 438.784 438.784 438.784-196.608 438.784-438.784-196.608-438.784-438.784-438.784z" fill="#D51C32" p-id="2547"></path><path d="M532.992 258.048l65.536 138.24c3.584 7.168 10.24 12.288 17.92 13.312l145.92 22.016c19.456 3.072 27.136 27.648 13.312 41.984l-105.472 107.52c-5.632 5.632-8.192 13.824-6.656 22.016l25.088 152.064c3.072 19.968-16.896 35.328-34.304 26.112l-130.56-71.68c-6.656-3.584-14.848-3.584-22.016 0l-130.56 71.68c-17.408 9.728-37.376-5.632-34.304-26.112l25.088-152.064c1.536-8.192-1.024-16.384-6.656-22.016l-105.472-107.52c-13.824-14.336-6.144-38.912 13.312-41.984L409.088 409.6c7.68-1.024 14.336-6.144 17.92-13.312l65.536-138.24c7.168-18.432 32.256-18.432 40.448 0z" fill="#D51C32" p-id="2548"></path></svg>