<?xml version="1.0" standalone="no"?><!DOCTYPE svg PUBLIC "-//W3C//DTD SVG 1.1//EN" "http://www.w3.org/Graphics/SVG/1.1/DTD/svg11.dtd"><svg t="1641544580549" class="icon" viewBox="0 0 1140 1024" version="1.1" xmlns="http://www.w3.org/2000/svg" p-id="1797" xmlns:xlink="http://www.w3.org/1999/xlink" width="222.65625" height="200"><defs><style type="text/css"></style></defs><path d="M1126.133 450.542L901.473 61.57C881.97 27.784 834.07 0 795.061 0h-449.32c-38.897 0-86.907 27.784-106.411 61.458L14.67 450.43c-19.56 33.785-19.56 88.908 0 122.916L239.33 962.32c19.504 33.785 67.403 61.458 106.412 61.458h449.32c38.897 0 86.852-27.784 106.411-61.458l224.66-388.973c19.56-33.73 19.56-88.964 0-122.805zM521.835 215.158a46.343 46.343 0 1 1 92.632 0V491.94a46.343 46.343 0 1 1-92.632 0zM568.18 805.73A314.013 314.013 0 0 1 380.86 239.885a41.176 41.176 0 1 1 49.178 66.07A231.661 231.661 0 1 0 799.785 491.94a232.773 232.773 0 0 0-94.076-186.318 41.176 41.176 0 0 1 48.677-66.681 314.068 314.068 0 0 1-186.207 566.79z" fill="#68BD45" p-id="1798"></path></svg>