<?xml version="1.0" standalone="no"?><!DOCTYPE svg PUBLIC "-//W3C//DTD SVG 1.1//EN" "http://www.w3.org/Graphics/SVG/1.1/DTD/svg11.dtd"><svg t="1642329322903" class="icon" viewBox="0 0 1026 1024" version="1.1" xmlns="http://www.w3.org/2000/svg" p-id="2866" xmlns:xlink="http://www.w3.org/1999/xlink" width="200.390625" height="200"><defs><style type="text/css"></style></defs><path d="M30.72 212.48H995.84a30.72 30.72 0 1 0 0-61.44H30.72a30.72 30.72 0 1 0 0 61.44zM995.84 481.28H627.02592a75.4688 75.4688 0 0 0-68.94592-44.8 75.52 75.52 0 0 0 0 151.04A75.48928 75.48928 0 0 0 627.02592 542.72H995.84a30.72 30.72 0 1 0 0-61.44z" fill="#555555" p-id="2867"></path><path d="M30.72 542.72h326.87104c14.90944 99.072 100.36224 175.36 203.53024 175.36a30.72 30.72 0 1 0 0-61.44c-79.75936 0-144.64-64.89088-144.64-144.64 0-79.75936 64.88064-144.64 144.64-144.64a30.72 30.72 0 1 0 0-61.44c-103.168 0-188.6208 76.27776-203.53024 175.36H30.72a30.72 30.72 0 1 0 0 61.44zM995.84 824.32H30.72a30.72 30.72 0 1 0 0 61.44H995.84a30.72 30.72 0 1 0 0-61.44z" fill="#555555" p-id="2868"></path></svg>