<?xml version="1.0" standalone="no"?><!DOCTYPE svg PUBLIC "-//W3C//DTD SVG 1.1//EN" "http://www.w3.org/Graphics/SVG/1.1/DTD/svg11.dtd"><svg t="1673114391493" class="icon" viewBox="0 0 1024 1024" version="1.1" xmlns="http://www.w3.org/2000/svg" p-id="15961" xmlns:xlink="http://www.w3.org/1999/xlink" width="200" height="200"><path d="M644.48 98.05H384.01c-66.17 0-120 53.83-120 120v454.94c0 7.95 3.16 15.58 8.78 21.21l220.24 220.38c5.63 5.63 13.26 8.79 21.22 8.79s15.59-3.16 21.22-8.79L755.7 694.19a29.995 29.995 0 0 0 8.78-21.21V218.05c0-66.17-53.83-120-120-120z m60 562.51L514.25 850.92 324.01 660.56V218.05c0-33.08 26.92-60 60-60h260.47c33.08 0 60 26.92 60 60v442.51z" p-id="15962"></path><path d="M512 333.99m-70.37 0a70.37 70.37 0 1 0 140.74 0 70.37 70.37 0 1 0-140.74 0Z" p-id="15963"></path></svg>